<svg xmlns="http://www.w3.org/2000/svg" width="47.5" height="44.18" viewBox="0 0 47.5 44.18">
  <defs>
    <style>
      .cls-1 {
        fill: #ffeb3b;
        fill-rule: evenodd;
      }
    </style>
  </defs>
  <path class="cls-1" d="M534.752,2048.13c-0.007-3.09-2.166-5.78-5.106-5.81h-9.578v-4.27a3.151,3.151,0,0,0-3.146-3.15H505.077a3.15,3.15,0,0,0-3.149,3.15v4.27h-9.577c-2.943.03-5.1,2.72-5.1,5.81v5.55a0.923,0.923,0,0,0,0,.11,0.682,0.682,0,0,0,0,.1,3.019,3.019,0,0,0,.087.73,5.324,5.324,0,0,0,2.222,2.99v14.48a7.024,7.024,0,0,0,7.008,7.01h28.867a7.028,7.028,0,0,0,7.009-7.01v-14.48a5.365,5.365,0,0,0,2.219-2.99,3.019,3.019,0,0,0,.087-0.73c0-.04,0-0.08,0-0.11s0-.06,0-0.1Zm-30.845-10.08a1.179,1.179,0,0,1,1.17-1.17h11.845a1.181,1.181,0,0,1,1.17,1.17v4.27H503.9Zm26.553,20.74v13.3a5.054,5.054,0,0,1-5.028,5.03H496.565a5.058,5.058,0,0,1-5.03-5.03v-13.3a2.061,2.061,0,0,1,.221.1c0.385,0.18.78,0.36,1.2,0.53a44.663,44.663,0,0,0,12.147,2.52v2.11a2.47,2.47,0,0,0,2.473,2.47h6.846a2.469,2.469,0,0,0,2.472-2.47v-2.11a56.736,56.736,0,0,0,6-.81,35.734,35.734,0,0,0,6.149-1.71h0c0.424-.18.818-0.35,1.207-0.54C530.314,2058.85,530.392,2058.82,530.46,2058.79Zm-23.382,1.3v-0.9a0.508,0.508,0,0,1,.5-0.5h6.846a0.508,0.508,0,0,1,.5.5v4.86a0.507,0.507,0,0,1-.5.49h-6.846a0.506,0.506,0,0,1-.5-0.49v-3.96Zm22.568-15.79c1.582,0,3.12,1.61,3.122,3.83v5.52c0,0.03,0,.07,0,0.13s0,0.12,0,.14a1.4,1.4,0,0,1-.038.27c-0.1.68-.947,1.61-2.472,2.47-0.111.06-.227,0.13-0.34,0.18s-0.229.12-.35,0.18c-0.144.07-.3,0.14-0.452,0.21-0.253.12-.516,0.23-0.8,0.34a36.575,36.575,0,0,1-8.029,1.99c-1.084.16-2.218,0.29-3.393,0.39v-0.76a2.471,2.471,0,0,0-2.472-2.48h-6.846a2.472,2.472,0,0,0-2.473,2.48v0.76c-0.954-.08-1.877-0.19-2.771-0.31a37.456,37.456,0,0,1-8.649-2.07c-0.289-.11-0.558-0.22-0.82-0.34-0.142-.07-0.277-0.13-0.408-0.2s-0.27-.13-0.4-0.2c-0.106-.05-0.208-0.11-0.309-0.16-1.531-.87-2.377-1.8-2.48-2.47a2.082,2.082,0,0,1-.041-0.27c0-.01,0-0.05.009-0.1l0-.05,0-.06c0-.04-0.009-0.08-0.009-0.1v-5.49c0-2.22,1.541-3.83,3.126-3.83h37.295Z" transform="translate(-487.25 -2034.91)"/>
</svg>
