<svg xmlns="http://www.w3.org/2000/svg" width="47" height="46" viewBox="0 0 47 46">
  <defs>
    <style>
      .cls-1 {
        fill: #ffeb3b;
        fill-rule: evenodd;
      }
    </style>
  </defs>
  <path class="cls-1" d="M26.516,8.278a6.267,6.267,0,0,1,6.262-6.259,4.817,4.817,0,0,1,4.812,4.807,3.657,3.657,0,0,1-3.645,3.646,2.722,2.722,0,0,1-2.719-2.716H29.217a4.728,4.728,0,0,0,4.728,4.725A5.655,5.655,0,0,0,39.6,6.826,6.82,6.82,0,0,0,32.778.008a8.269,8.269,0,0,0-8.269,8.27v6.257h2.012ZM13.811,45.992H38.8v-2.01H13.811v2.01ZM5.75,16.431v1h0a31.171,31.171,0,0,0,.345,4.527A6.992,6.992,0,1,0,11.33,34.618c3.693,4.8,8.93,7.825,14.837,7.848,11.454-.043,20.4-11.361,20.418-25.031h0v-1H5.75ZM7.408,33.812a4.98,4.98,0,0,1-.948-9.869,27.493,27.493,0,0,0,3.71,9.03A4.975,4.975,0,0,1,7.408,33.812Zm31.7-.019c-3.364,4.156-7.932,6.662-12.945,6.662s-9.579-2.506-12.947-6.662c-0.138-.174-0.261-0.364-0.4-0.541-0.428-.561-0.832-1.154-1.211-1.769a25.426,25.426,0,0,1-3.076-7.5c-0.162-.691-0.3-1.4-0.414-2.115a28.748,28.748,0,0,1-.349-3.432h36.78A25.857,25.857,0,0,1,39.112,33.793Z"/>
</svg>
