<svg xmlns="http://www.w3.org/2000/svg" width="46.24" height="40.76" viewBox="0 0 46.24 40.76">
  <defs>
    <style>
      .cls-1 {
        fill: #ffeb3b;
        fill-rule: evenodd;
      }
    </style>
  </defs>
  <path class="cls-1" d="M1406.81,2075.7c-0.05-.05-0.09-0.08-0.1-0.09h0l0.37-.35-0.37.34c-6.18-6.18-11.7-11.55-15.7-16.13h0c-3.98-4.59-6.57-8.27-6.63-11.66h0c0-.06,0-0.14.01-0.25h0a12,12,0,0,1,11.99-11.94h0a11.977,11.977,0,0,1,10.85,6.92h0l0.27,0.58,0.01-.02,0.26-.56a11.988,11.988,0,0,1,10.85-6.92h0a11.982,11.982,0,0,1,11.99,11.94h0a2.175,2.175,0,0,0,.01.26h0c-0.06,3.38-2.66,7.07-6.63,11.66h0c-4,4.56-9.5,9.92-15.67,16.1h0l-0.05.05h0l-0.69.75-0.77-.68h0Zm-20.33-28.09v0.09a0.5,0.5,0,0,0-.01.11h0c-0.06,2.19,2.17,5.84,6.11,10.29h0c3.77,4.31,9.02,9.45,14.92,15.34h0c5.91-5.9,11.15-11.03,14.92-15.34h0c3.93-4.44,6.17-8.09,6.11-10.28h0a1.7,1.7,0,0,0-.01-0.21h0a9.9,9.9,0,0,0-9.9-9.9h0a9.9,9.9,0,0,0-8.96,5.71h0l-0.26.57-0.15.31-0.04.05a2.01,2.01,0,0,1-1.71.96h0a2.077,2.077,0,0,1-1.8-1.1h0a2.308,2.308,0,0,1-.1-0.21h0l-0.26-.57a9.879,9.879,0,0,0-8.95-5.72h0a9.9,9.9,0,0,0-9.91,9.9h0Zm21.08-4.35-0.02-.03h0l0.02,0.03h0Z" transform="translate(-1384.38 -2035.62)"/>
</svg>
