<svg xmlns="http://www.w3.org/2000/svg" width="41.82" height="41.82" viewBox="0 0 41.82 41.82">
  <defs>
    <style>
      .cls-1 {
        fill: #ffeb3b;
        fill-rule: evenodd;
      }
    </style>
  </defs>
  <path class="cls-1" d="M1125.48,2042.5l3.52,3.52a1.093,1.093,0,0,1,.32.76,1.116,1.116,0,0,1-.32.77h0l-22.4,22.4,1.48,1.48,22.4-22.4a3.2,3.2,0,0,0,0-4.49l-8.52-8.52a3.2,3.2,0,0,0-4.49,0l-22.4,22.4,1.48,1.48,22.4-22.4a1.074,1.074,0,0,1,1.53,0l3.52,3.52-21.24,21.24,1.48,1.48Zm-31.72,21.66a2.385,2.385,0,0,0-1.62-.78,1.7,1.7,0,0,0-1.35.7,2.483,2.483,0,0,0-.46,1.34l-0.72,8.43h0a2.528,2.528,0,0,0-.01.28,2.716,2.716,0,0,0,.79,1.97,2.789,2.789,0,0,0,1.98.8h0a2.09,2.09,0,0,0,.25-0.01l8.47-.72a2.479,2.479,0,0,0,1.33-.46,1.7,1.7,0,0,0,.7-1.35,2.3,2.3,0,0,0-.78-1.62Zm-1.3,10.65c-0.02,0-.05.01-0.09,0.01a0.641,0.641,0,0,1-.69-0.69v-0.09h0.01l0.71-8.29,8.35,8.35Z" transform="translate(-1089.59 -2035.09)"/>
</svg>
